<?xml version="1.0" standalone="no"?>
<!DOCTYPE svg PUBLIC "-//W3C//DTD SVG 20010904//EN"
 "http://www.w3.org/TR/2001/REC-SVG-20010904/DTD/svg10.dtd">
<svg version="1.0" xmlns="http://www.w3.org/2000/svg"
 width="860.000000pt" height="860.000000pt" viewBox="0 0 860.000000 860.000000"
 preserveAspectRatio="xMidYMid meet">
<metadata>
Created by potrace 1.14, written by Peter Selinger 2001-2017
</metadata>
<g transform="translate(0.000000,860.000000) scale(0.100000,-0.100000)"
fill="#000000" stroke="none">
<path d="M3980 8594 c-906 -80 -1688 -389 -2382 -942 -171 -136 -514 -479
-650 -650 -459 -576 -767 -1254 -887 -1952 -49 -287 -56 -379 -56 -750 0 -381
9 -499 61 -780 285 -1551 1400 -2825 2904 -3317 285 -93 607 -159 924 -189
239 -23 745 -15 961 15 567 78 1097 254 1576 526 253 144 548 361 791 581 296
269 619 675 823 1033 278 490 455 1028 532 1616 23 176 26 814 5 985 -68 551
-201 997 -437 1465 -651 1293 -1886 2160 -3335 2340 -129 16 -710 29 -830 19z"/>
</g>
</svg>
